HIERARCHY
ROOT Hips
{
	OFFSET 55.280998 3.152155 93.952499
	CHANNELS 6 Xposition Yposition Zposition Xrotation Yrotation Zrotation
	JOINT spine
	{
		OFFSET 0.000000 -0.448574 7.800591
		CHANNELS 3 Xrotation Yrotation Zrotation
		JOINT spine1
		{
			OFFSET 0.000000 -0.000001 10.136398
			CHANNELS 3 Xrotation Yrotation Zrotation
			JOINT spine2
			{
				OFFSET 0.000000 -0.000002 9.712509
				CHANNELS 3 Xrotation Yrotation Zrotation
				JOINT Neck
				{
					OFFSET 0.000000 -1.188874 24.936104
					CHANNELS 3 Xrotation Yrotation Zrotation
					JOINT Head
					{
						OFFSET 0.000000 -0.000001 7.533844
						CHANNELS 3 Xrotation Yrotation Zrotation
						End Site
						{
							OFFSET 0.000000 6.014017 18.236099
						}
					}
				}
				JOINT RightShoulder
				{
					OFFSET -4.089649 0.569455 10.488792
					CHANNELS 3 Xrotation Yrotation Zrotation
					JOINT RightArm
					{
						OFFSET 0.000000 -0.000002 13.757004
						CHANNELS 3 Xrotation Yrotation Zrotation
						JOINT RightArmRoll
						{
							OFFSET 0.000000 -0.000001 6.944778
							CHANNELS 3 Xrotation Yrotation Zrotation
							JOINT RightForeArm
							{
								OFFSET 0.000000 -0.000003 20.227692
								CHANNELS 3 Xrotation Yrotation Zrotation
								JOINT RightForeArmRoll
								{
									OFFSET 0.000000 -0.000001 7.793121
									CHANNELS 3 Xrotation Yrotation Zrotation
									JOINT RightHand
									{
										OFFSET 0.000000 -0.000002 15.639099
										CHANNELS 3 Xrotation Yrotation Zrotation
										End Site
										{
											OFFSET 0.000000 0.000000 0.100006
										}
									}
								}
							}
						}
					}
				}
				JOINT LeftShoulder
				{
					OFFSET 4.089649 0.569455 10.488792
					CHANNELS 3 Xrotation Yrotation Zrotation
					JOINT LeftArm
					{
						OFFSET 0.000000 -0.000002 13.757004
						CHANNELS 3 Xrotation Yrotation Zrotation
						JOINT LeftArmRoll
						{
							OFFSET 0.000000 -0.000001 6.944778
							CHANNELS 3 Xrotation Yrotation Zrotation
							JOINT LeftForeArm
							{
								OFFSET 0.000000 -0.000003 20.227692
								CHANNELS 3 Xrotation Yrotation Zrotation
								JOINT LeftForeArmRoll
								{
									OFFSET 0.000000 -0.000001 7.793121
									CHANNELS 3 Xrotation Yrotation Zrotation
									JOINT LeftHand
									{
										OFFSET 0.000000 -0.000002 15.639099
										CHANNELS 3 Xrotation Yrotation Zrotation
										End Site
										{
											OFFSET 0.000000 0.000000 0.100006
										}
									}
								}
							}
						}
					}
				}
			}
		}
	}
	JOINT RightUpLeg
	{
		OFFSET -6.914150 1.063580 -1.267883
		CHANNELS 3 Xrotation Yrotation Zrotation
		JOINT RightUpLegRoll
		{
			OFFSET 0.000000 -0.000003 18.337799
			CHANNELS 3 Xrotation Yrotation Zrotation
			JOINT RightLeg
			{
				OFFSET 0.000000 0.000004 -22.708496
				CHANNELS 3 Xrotation Yrotation Zrotation
				JOINT RightLegRoll
				{
					OFFSET 0.000000 -0.000004 22.782799
					CHANNELS 3 Xrotation Yrotation Zrotation
					JOINT RightFoot
					{
						OFFSET 0.000000 -0.000003 18.962898
						CHANNELS 3 Xrotation Yrotation Zrotation
						JOINT RightToeBase
						{
							OFFSET 0.000000 -0.000003 15.852005
							CHANNELS 3 Xrotation Yrotation Zrotation
							End Site
							{
								OFFSET 0.006718 0.884892 7.677017
							}
						}
					}
				}
			}
		}
	}
	JOINT LeftUpLeg
	{
		OFFSET 6.914150 1.063580 -1.267883
		CHANNELS 3 Xrotation Yrotation Zrotation
		JOINT LeftUpLegRoll
		{
			OFFSET 0.000000 -0.000003 18.337898
			CHANNELS 3 Xrotation Yrotation Zrotation
			JOINT LeftLeg
			{
				OFFSET 0.000000 -0.000004 22.708397
				CHANNELS 3 Xrotation Yrotation Zrotation
				JOINT LeftLegRoll
				{
					OFFSET 0.000000 -0.000004 22.993393
					CHANNELS 3 Xrotation Yrotation Zrotation
					JOINT LeftFoot
					{
						OFFSET 0.000000 -0.000003 18.752197
						CHANNELS 3 Xrotation Yrotation Zrotation
						JOINT LeftToeBase
						{
							OFFSET 0.000000 -0.000002 15.852005
							CHANNELS 3 Xrotation Yrotation Zrotation
							End Site
							{
								OFFSET -0.030113 0.884892 7.677002
							}
						}
					}
				}
			}
		}
	}
}
MOTION
Frames: 13
Frame Time: 0.041667
51.268394 0.166829 99.639107 -2.859777 -0.797000 7.117037 -1.601541 0.579801 0.228075 0.797368 1.155348 0.464979 2.442562 1.160835 0.451101 -3.080900 10.832396 -4.787765 0.953796 -12.755593 -5.444140 -18.132231 -39.201874 -21.327855 28.198228 -26.559633 78.765523 0.000001 0.000001 -0.000001 43.837592 1.866607 -0.581983 -0.000000 0.000011 -2.999989 -5.000212 -7.998883 0.000176 -17.604784 33.265825 20.570260 -144.595187 137.076583 109.496149 -0.000000 -0.000000 -0.000003 41.597047 -3.698295 0.690575 0.000005 -0.000005 3.000001 -5.000402 7.998802 -0.000188 -5.419675 193.621151 -0.914798 -179.999991 0.000005 -1.446997 156.305587 9.938820 0.565571 -0.000002 -0.000001 0.334628 68.756372 7.088316 1.640876 25.345830 -7.355479 -0.128344 -7.937048 162.673427 -1.178982 -0.000004 -0.000004 -1.244301 -19.147180 1.008201 0.589497 -0.000003 -0.000002 -0.290736 68.858013 -6.963322 -1.957247 25.456965 7.355617 -0.000008 
51.264400 0.109520 99.883904 -2.905208 -0.819606 7.028887 -1.579652 0.581588 0.231132 0.841106 1.158965 0.470702 2.486293 1.164524 0.456779 -3.346711 10.931182 -4.732945 1.107145 -12.850281 -5.406326 -18.168484 -39.647448 -21.380078 28.112621 -26.968094 78.463731 -0.000001 0.000002 -0.000000 43.788763 1.825032 -0.601215 -0.000004 0.000011 -2.999990 -5.000213 -7.998877 0.000178 -17.660282 33.584897 20.650647 -144.969946 136.610832 110.050624 0.000000 -0.000000 -0.000003 41.498662 -3.565786 0.704207 0.000007 -0.000008 3.000004 -5.000402 7.998804 -0.000184 -5.397822 193.502087 -0.964460 -179.999991 0.000004 -1.441002 156.390718 9.938700 0.563109 -0.000001 -0.000004 0.332151 68.761966 7.082645 1.655250 25.366238 -7.355537 -0.104768 -7.773571 162.880382 -1.126024 -0.000006 -0.000005 -1.244429 -19.060891 1.028550 0.586867 -0.000003 -0.000001 -0.286168 68.811014 -6.959925 -1.969569 25.456969 7.355619 -0.000013 
51.305401 0.048496 100.050011 -2.945910 -0.838974 6.939207 -1.558260 0.582818 0.234375 0.883871 1.161462 0.476796 2.529066 1.167093 0.462844 -3.614648 11.023173 -4.676991 1.258823 -12.937984 -5.367710 -18.206306 -40.090984 -21.434141 28.028972 -27.380478 78.157998 -0.000001 0.000000 0.000001 43.748287 1.780620 -0.619362 -0.000000 0.000009 -2.999989 -5.000212 -7.998881 0.000177 -17.717803 33.901869 20.733278 -145.346289 136.149740 110.600693 0.000000 -0.000000 0.000002 41.402838 -3.435636 0.717372 0.000004 -0.000007 3.000001 -5.000405 7.998802 -0.000185 -5.392564 193.378706 -1.017550 -179.999991 0.000005 -1.433993 156.458078 9.936334 0.560327 -0.000002 -0.000001 0.330759 68.770060 7.076870 1.669645 25.387663 -7.355584 -0.080030 -7.626324 163.086216 -1.071973 -0.000004 -0.000003 -1.244540 -18.995811 1.049418 0.585128 -0.000004 -0.000001 -0.282137 68.766406 -6.956674 -1.981368 25.456959 7.355617 -0.000008 
51.309898 0.011426 100.299004 -2.981444 -0.854521 6.848186 -1.537569 0.583483 0.237721 0.925228 1.162829 0.483114 2.570425 1.168534 0.469146 -3.882435 11.104997 -4.620169 1.407583 -13.015507 -5.328183 -18.245151 -40.532883 -21.489209 27.945535 -27.797647 77.845640 0.000001 0.000000 -0.000000 43.717855 1.732746 -0.636428 -0.000002 0.000008 -2.999990 -5.000218 -7.998882 0.000178 -17.777367 34.212896 20.817906 -145.718889 135.690328 111.140865 0.000000 0.000000 -0.000001 41.309814 -3.309045 0.729980 0.000006 -0.000006 3.000002 -5.000403 7.998801 -0.000191 -5.404199 193.249971 -1.073511 -179.999991 0.000005 -1.427996 156.509550 9.929062 0.557742 -0.000002 -0.000003 0.330474 68.780777 7.071027 1.683960 25.408574 -7.355617 -0.055874 -7.496262 163.287939 -1.017374 -0.000005 -0.000004 -1.244540 -18.951046 1.071672 0.584356 -0.000003 -0.000001 -0.278681 68.725336 -6.953540 -1.992559 25.456962 7.355615 -0.000011 
51.287300 0.066261 100.445999 -3.011402 -0.865669 6.756002 -1.517800 0.583578 0.241087 0.964742 1.163055 0.489503 2.609934 1.168837 0.475532 -4.147777 11.173601 -4.562778 1.552163 -13.079765 -5.287665 -18.284638 -40.973212 -21.544525 27.860714 -28.220424 77.523863 -0.000000 0.000001 -0.000001 43.699059 1.680775 -0.652351 -0.000002 0.000009 -2.999990 -5.000214 -7.998882 0.000178 -17.838548 34.513892 20.904264 -146.082133 135.229864 111.665834 -0.000000 0.000000 0.000001 41.219601 -3.187245 0.741972 0.000005 -0.000006 2.999999 -5.000400 7.998802 -0.000186 -5.432965 193.114897 -1.131761 -179.999991 0.000006 -1.422997 156.547048 9.915236 0.554222 -0.000001 -0.000003 0.331314 68.794519 7.065108 1.698170 25.427449 -7.355631 -0.034044 -7.384252 163.484512 -0.963046 -0.000005 -0.000003 -1.244381 -18.925595 1.096220 0.584633 -0.000004 -0.000002 -0.275822 68.688952 -6.950542 -2.002882 25.456957 7.355619 -0.000013 
51.303600 0.010073 100.682007 -3.035341 -0.871843 6.662840 -1.499169 0.583095 0.244395 1.001977 1.162122 0.495809 2.647170 1.167983 0.481848 -4.408378 11.225843 -4.505205 1.691323 -13.127678 -5.246078 -18.323955 -41.412475 -21.599085 27.772341 -28.649440 77.189682 -0.000000 0.000000 -0.000001 43.693499 1.624073 -0.667120 -0.000004 0.000012 -2.999988 -5.000214 -7.998881 0.000178 -17.901038 34.800876 20.991850 -146.430322 134.765124 112.169779 0.000000 0.000000 -0.000002 41.132349 -3.071448 0.753244 0.000006 -0.000009 3.000000 -5.000402 7.998801 -0.000186 -5.479152 192.974496 -1.191910 -179.999991 0.000005 -1.417000 156.572374 9.894022 0.550064 -0.000002 -0.000002 0.333300 68.811560 7.059194 1.712168 25.442817 -7.355629 -0.016296 -7.291090 163.675908 -0.909962 -0.000004 -0.000003 -1.243979 -18.918680 1.123926 0.586030 -0.000002 0.000000 -0.273590 68.658441 -6.947732 -2.012170 25.456965 7.355618 -0.000012 
51.356499 -0.019489 100.854004 -3.052850 -0.872472 6.568890 -1.481897 0.582030 0.247568 1.036493 1.160020 0.501877 2.681686 1.165952 0.487942 -4.661905 11.258396 -4.447928 1.823785 -13.156168 -5.203433 -18.362890 -41.850943 -21.652258 27.678174 -29.085589 76.840072 -0.000000 0.000001 0.000001 43.702757 1.562022 -0.680679 -0.000003 0.000010 -2.999990 -5.000212 -7.998882 0.000175 -17.964682 35.069801 21.080453 -146.757679 134.293076 112.647448 0.000000 -0.000000 0.000001 41.047972 -2.962878 0.763710 0.000004 -0.000008 2.999998 -5.000402 7.998802 -0.000186 -5.543004 192.826759 -1.253256 -179.999991 0.000006 -1.412000 156.587305 9.864673 0.545580 -0.000002 -0.000003 0.336452 68.832174 7.053259 1.725743 25.453113 -7.355620 -0.004367 -7.217711 163.859134 -0.858714 -0.000005 -0.000002 -1.243269 -18.929400 1.155667 0.588627 -0.000001 -0.000001 -0.272020 68.634740 -6.945114 -2.020463 25.456969 7.355615 -0.000012 
51.326099 -0.046462 101.066010 -3.063502 -0.866990 6.474321 -1.466203 0.580373 0.250520 1.067868 1.156729 0.507557 2.713059 1.162726 0.493661 -4.906038 11.268134 -4.391414 1.948292 -13.161952 -5.159723 -18.400818 -42.288901 -21.703097 27.575864 -29.529531 76.471829 0.000001 0.000001 -0.000000 43.728439 1.493989 -0.692972 -0.000004 0.000010 -2.999989 -5.000211 -7.998883 0.000176 -18.028964 35.316699 21.169558 -147.057593 133.810373 113.092414 0.000000 -0.000000 0.000001 40.966662 -2.862741 0.773242 0.000007 -0.000008 3.000000 -5.000400 7.998799 -0.000184 -5.624828 192.673694 -1.315478 -179.999991 0.000005 -1.407998 156.593712 9.825462 0.539645 -0.000002 -0.000002 0.340791 68.856715 7.047362 1.738974 25.456957 -7.355619 -0.000001 -7.164974 164.033181 -0.810142 -0.000006 -0.000004 -1.242179 -18.956961 1.192346 0.592524 -0.000001 -0.000001 -0.271136 68.619133 -6.942716 -2.027393 25.456964 7.355615 -0.000008 
51.401001 -0.024744 101.209000 -3.064561 -0.854780 6.378449 -1.451972 0.578031 0.253366 1.096302 1.152069 0.513080 2.741491 1.158134 0.499240 -5.154541 11.256672 -4.334430 2.072749 -13.147893 -5.114055 -18.440787 -42.728639 -21.756051 27.464764 -29.979001 76.078991 -0.000000 0.000002 0.000001 43.773627 1.418285 -0.703293 -0.000002 0.000009 -2.999990 -5.000215 -7.998883 0.000178 -18.098369 35.544212 21.265109 -147.327863 133.321604 113.504207 -0.000000 0.000000 0.000001 40.891058 -2.770002 0.781629 0.000007 -0.000008 3.000005 -5.000406 7.998802 -0.000186 -5.733758 192.509128 -1.381983 -179.999991 0.000006 -1.403995 156.579163 9.779197 0.533946 -0.000002 -0.000002 0.347138 68.886891 7.041194 1.752294 25.456962 -7.355616 0.000003 -7.140502 164.200261 -0.763039 -0.000006 -0.000002 -1.240759 -19.012870 1.232250 0.598093 -0.000003 -0.000001 -0.271176 68.610767 -6.940567 -2.033108 25.456964 7.355618 -0.000010 
51.371101 -0.059895 101.416008 -3.054527 -0.836106 6.280555 -1.438881 0.574945 0.256283 1.122485 1.145910 0.518796 2.767670 1.152035 0.505030 -5.420128 11.228763 -4.275866 2.204386 -13.119622 -5.065994 -18.485740 -43.171686 -21.815467 27.345806 -30.431542 75.659747 -0.000000 -0.000000 0.000001 43.838732 1.334362 -0.711069 -0.000003 0.000010 -2.999989 -5.000212 -7.998886 0.000176 -18.176752 35.758885 21.371944 -147.571455 132.833369 113.887373 0.000000 -0.000000 0.000001 40.823218 -2.682452 0.788724 0.000002 -0.000011 2.999999 -5.000402 7.998802 -0.000185 -5.876223 192.333865 -1.456061 -179.999991 0.000005 -1.400006 156.532691 9.729714 0.527215 -0.000001 -0.000001 0.356074 68.923466 7.034615 1.766238 25.456957 -7.355616 -0.000002 -7.148829 164.363448 -0.715907 -0.000005 -0.000004 -1.239089 -19.107000 1.273149 0.605614 -0.000002 -0.000003 -0.272275 68.607843 -6.938626 -2.037622 25.456960 7.355615 -0.000009 
51.391800 -0.020380 101.551010 -3.034773 -0.811720 6.180799 -1.426809 0.571154 0.259287 1.146626 1.138332 0.524729 2.791808 1.144540 0.511052 -5.698886 11.186054 -4.216419 2.340921 -13.078156 -5.016145 -18.535103 -43.616724 -21.880405 27.218635 -30.887253 75.217356 -0.000002 0.000001 0.000001 43.921398 1.243364 -0.716477 -0.000002 0.000010 -2.999989 -5.000213 -7.998882 0.000178 -18.262136 35.962479 21.487869 -147.791264 132.345324 114.244872 -0.000000 0.000000 0.000000 40.762016 -2.599596 0.794626 0.000007 -0.000008 2.999995 -5.000403 7.998805 -0.000183 -6.048244 192.149040 -1.536058 -179.999991 0.000006 -1.397001 156.457559 9.677255 0.520824 -0.000001 -0.000003 0.367253 68.965649 7.027671 1.780666 25.456957 -7.355619 0.000002 -7.186167 164.521594 -0.668976 -0.000005 -0.000005 -1.237220 -19.235170 1.315036 0.614981 -0.000003 -0.000003 -0.274321 68.609728 -6.936893 -2.041277 25.456965 7.355615 -0.000011 
51.439899 -0.059555 101.758018 -3.006711 -0.782366 6.079297 -1.415629 0.566702 0.262389 1.168967 1.129435 0.530900 2.814154 1.135709 0.517328 -5.986921 11.130300 -4.156721 2.480054 -13.024808 -4.965121 -18.588099 -44.062701 -21.949831 27.083503 -31.346166 74.755020 -0.000001 0.000002 0.000002 44.019193 1.146422 -0.719687 -0.000004 0.000011 -2.999988 -5.000214 -7.998884 0.000176 -18.352954 36.156884 21.610806 -147.990405 131.857102 114.580009 -0.000000 0.000000 0.000000 40.705998 -2.520972 0.799369 0.000005 -0.000009 3.000002 -5.000400 7.998801 -0.000184 -6.245805 191.953710 -1.620136 -179.999991 0.000006 -1.393996 156.357674 9.621214 0.513649 -0.000001 -0.000002 0.380334 69.012505 7.020453 1.795544 25.456955 -7.355615 -0.000001 -7.248600 164.677568 -0.622928 -0.000004 -0.000005 -1.235199 -19.393265 1.357923 0.626093 -0.000002 -0.000001 -0.277196 68.616005 -6.935369 -2.043893 25.456964 7.355617 -0.000010 
51.422600 0.050896 101.866013 -2.971716 -0.748776 5.976179 -1.405238 0.561631 0.265607 1.189747 1.119299 0.537328 2.834918 1.125651 0.523881 -6.280360 11.063170 -4.097412 2.619499 -12.960605 -4.913508 -18.643826 -44.508361 -22.022531 26.940588 -31.808621 74.276190 -0.000001 -0.000001 -0.000000 44.129750 1.044672 -0.720876 -0.000004 0.000009 -2.999992 -5.000212 -7.998882 0.000177 -18.447629 36.344007 21.738703 -148.172020 131.368771 114.895789 0.000001 0.000000 0.000001 40.654229 -2.446082 0.803081 0.000004 -0.000009 3.000002 -5.000405 7.998803 -0.000186 -6.464967 191.750922 -1.706916 -179.999991 0.000006 -1.392001 156.236465 9.560928 0.506651 -0.000002 -0.000002 0.394971 69.063109 7.013064 1.810666 25.456957 -7.355616 -0.000001 -7.332371 164.830237 -0.577909 -0.000005 -0.000005 -1.233040 -19.577399 1.401799 0.638832 -0.000002 -0.000001 -0.280784 68.626223 -6.933996 -2.045791 25.456959 7.355615 -0.000012 
